<?xml version="1.0" encoding="utf-8"?>
<!-- Generator: Adobe Illustrator 18.1.1, SVG Export Plug-In . SVG Version: 6.00 Build 0)  -->
<svg version="1.1" xmlns="http://www.w3.org/2000/svg" xmlns:xlink="http://www.w3.org/1999/xlink" x="0px" y="0px"
	 viewBox="0 0 3000 3000" enable-background="new 0 0 3000 3000" xml:space="preserve">
<g id="Swarm_Icon">
	<polygon opacity="0.45" points="1966.9,783.3 1966.9,940.2 1827.5,861.7 1827.5,704.9 	"/>
	<polygon opacity="0.6" points="1827.5,861.7 1827.5,1018.6 1966.9,940.2 1966.9,783.3 	"/>
	<polygon opacity="0.3" points="909.2,1738.6 1188,1895.4 1466.9,1738.6 1188,1581.7 	"/>
	<polygon opacity="0.45" points="1188,1581.7 1188,1895.4 909.2,1738.6 909.2,1424.9 	"/>
	<polygon opacity="0.45" points="1466.9,1424.9 1466.9,1738.6 1188,1581.7 1188,1268 	"/>
	<polygon opacity="0.6" points="1188,1581.7 1188,1895.4 1466.9,1738.6 1466.9,1424.9 	"/>
	<polygon opacity="0.6" points="909.2,1424.9 909.2,1738.6 1188,1581.7 1188,1268 	"/>
	<polygon opacity="0.8" points="1496.3,1053.5 1635.7,1131.9 1775.2,1053.5 1635.7,975 	"/>
	<polygon opacity="0.8" points="909.2,1424.9 1188,1581.7 1466.9,1424.9 1188,1268 	"/>
	<polygon opacity="0.3" points="1533.1,1738.6 1812,1895.4 2090.8,1738.6 1812,1581.7 	"/>
	<polygon opacity="0.45" points="1812,1581.7 1812,1895.4 1533.1,1738.6 1533.1,1424.9 	"/>
	<polygon opacity="0.45" points="2090.8,1424.9 2090.8,1738.6 1812,1581.7 1812,1268 	"/>
	<polygon opacity="0.6" points="1812,1581.7 1812,1895.4 2090.8,1738.6 2090.8,1424.9 	"/>
	<polygon opacity="0.6" points="1533.1,1424.9 1533.1,1738.6 1812,1581.7 1812,1268 	"/>
	<polygon opacity="0.8" points="1533.1,1424.9 1812,1581.7 2090.8,1424.9 1812,1268 	"/>
	<polygon opacity="0.6" points="1496.3,896.6 1496.3,1053.5 1635.7,975 1635.7,818.2 	"/>
	<polygon opacity="0.3" points="1217.5,1210.3 1496.3,1367.2 1775.2,1210.3 1496.3,1053.5 	"/>
	<polygon opacity="0.45" points="1496.3,1053.5 1496.3,1367.2 1217.5,1210.3 1217.5,896.6 	"/>
	<polygon opacity="0.6" points="1217.5,896.6 1217.5,1210.3 1496.3,1053.5 1496.3,739.7 	"/>
	<polygon opacity="0.6" points="1635.7,1131.9 1635.7,975 1496.3,1053.5 1496.3,1210.3 1496.3,1367.2 1635.7,1288.7 1775.2,1210.3 
		1775.2,1053.5 	"/>
	<g>
		<polygon opacity="0.45" points="1635.7,818.2 1496.3,739.7 1496.3,1053.5 1775.2,1210.3 1775.2,1053.5 1635.7,975 		"/>
	</g>
	<polygon opacity="0.8" points="1496.3,739.7 1635.7,818.2 1496.3,896.6 1496.3,1053.5 1217.5,896.6 	"/>
	<polygon opacity="0.8" points="1688,783.3 1827.5,861.7 1966.9,783.3 1827.5,704.9 	"/>
</g>
<g id="Guides" display="none">
	<g display="inline">
		<rect x="1397.8" y="1998.9" opacity="0.5" fill="#26A9E0" width="51.7" height="348"/>
		<rect x="1557.7" y="1998.9" opacity="0.5" fill="#26A9E0" width="51.7" height="348"/>
		<rect x="1674.1" y="1998.9" opacity="0.5" fill="#26A9E0" width="51.7" height="348"/>
		<rect x="1935.7" y="1998.9" opacity="0.5" fill="#26A9E0" width="51.7" height="348"/>
		<rect x="2090.8" y="653.2" opacity="0.5" fill="#26A9E0" width="51.7" height="1693.7"/>
		<rect x="857.4" y="653.2" opacity="0.5" fill="#26A9E0" width="51.7" height="1693.7"/>
		<rect x="1012.6" y="1998.1" opacity="0.5" fill="#26A9E0" width="51.7" height="348"/>
		<rect x="1174.7" y="1998.1" opacity="0.5" fill="#26A9E0" width="51.7" height="348"/>
		<rect x="909.2" y="1895.4" opacity="0.5" fill="#C45DA2" width="1181.7" height="51.7"/>
		<rect x="909.2" y="1947.1" opacity="0.25" fill="#C45DA2" width="1181.7" height="51.7"/>
		<rect x="1012.6" y="2191.3" opacity="0.5" fill="#C45DA2" width="974.8" height="51.7"/>
		<rect x="909.2" y="2294.1" opacity="0.5" fill="#C45DA2" width="1181.7" height="51.7"/>
		<rect x="909.2" y="2242.3" opacity="0.25" fill="#C45DA2" width="1181.7" height="51.7"/>
		<rect x="2039.1" y="1895.4" opacity="0.5" fill="#C45DA2" width="51.7" height="451"/>
		<rect x="1987.4" y="1895.4" opacity="0.25" fill="#C45DA2" width="51.7" height="451"/>
		<rect x="909.2" y="1895.4" opacity="0.5" fill="#C45DA2" width="51.7" height="451"/>
		<rect x="960.9" y="1895.4" opacity="0.25" fill="#C45DA2" width="51.7" height="451"/>
		<rect x="857.4" y="653.2" opacity="0.5" fill="#26A9E0" width="1285.1" height="51.7"/>
		<rect x="1012.6" y="1998.9" opacity="0.5" fill="#C45DA2" width="974.8" height="51.7"/>
	</g>
</g>
<g id="Swarm_typeface">
	<g opacity="0.8">
		<path d="M1174.7,2148.1c0,28.7-29.9,42-54.6,42c-26.7,0-55.8-10.5-55.8-41.6c0-5.3,0.4-9.3,6.9-9.3c3.2,0,4.4,4,4.4,6.5
			c0,26.7,21.4,33.2,44.5,33.2c18.2,0,43.3-8.9,43.3-30.7c0-40.8-97.4-16.6-97.4-63.9c0-27.1,30.3-34,51.7-34
			c25.5,0,53.8,9.3,53.8,39.6c0,3.2-3.2,5.3-6.1,5.3c-3.6,0-5.3-3.2-5.3-6.1c-0.8-6.5-2-10.9-6.5-16.2c-8.1-9.3-24.3-11.3-36-11.3
			c-14.2,0-40.4,3.2-40.4,22.2C1077.3,2118.6,1174.7,2095.5,1174.7,2148.1z"/>
		<path d="M1397.1,2056.7c0,2.4-41.6,118-45.7,128.6c-0.8,3.2-3.2,3.6-6.1,3.6s-4.9-0.4-6.1-3.6l-40.4-113.2l-40.4,113.2
			c-0.8,3.2-3.2,3.6-6.1,3.6s-5.3-0.4-6.1-3.6c-4-10.5-45.7-126.1-45.7-128.6c0-3.2,2.4-5.7,5.7-5.7c2.4,0,4.4,1.2,5.3,3.6
			l40.8,114.4l40.8-114.4c0.8-2.8,3.2-3.6,5.7-3.6c2.8,0,4.9,0.8,6.1,3.6l40.4,114.4l40.8-114.4c0.8-2.4,2.8-3.6,5.3-3.6
			C1394.6,2051.1,1397.1,2053.5,1397.1,2056.7z"/>
		<path d="M1556.9,2056.7V2180c0,3.2-2.4,5.7-5.7,5.7c-3.2,0-5.7-2.4-5.7-5.7v-25.9c-11.3,20.6-32.3,35.2-56.6,35.2
			c-38,0-65.1-34-65.1-70.3s27.1-70.3,65.1-70.3c24.3,0,45.3,14.6,56.6,35.2v-27.1c0-2.8,2.4-5.7,5.7-5.7
			C1554.5,2051.1,1556.9,2053.9,1556.9,2056.7z M1542.8,2119c0-30.3-21.8-59-53.8-59c-31.5,0-53.8,28.7-53.8,59s22.2,59,53.8,59
			C1521,2178,1542.8,2149.3,1542.8,2119z"/>
		<path d="M1673.4,2057.9c0,3.6-2,5.7-5.3,6.1c-33.1,4.9-48.1,31.9-48.1,63.5v54.2c0,3.2-2.4,5.7-5.7,5.7s-5.7-2.4-5.7-5.7v-123.3
			c0-3.2,2.4-5.7,5.7-5.7s5.7,2.4,5.7,5.7v25.1c9.3-15.8,27.9-30.7,47.3-30.7C1670.1,2052.7,1673.4,2054.7,1673.4,2057.9z"/>
		<path d="M1934.9,2109.7v72.4c0,3.2-2.8,5.7-5.7,5.7c-3.2,0-5.7-2.4-5.7-5.7v-72.4c0-24.3-13.7-48.1-40.8-48.1
			c-34,0-46.9,36.4-46.9,64.7v55.8c0,3.2-2.8,5.7-5.7,5.7c-3.2,0-5.7-2.4-5.7-5.7v-72.4c0-24.3-13.7-48.1-40.8-48.1
			c-34.4,0-48.5,27.1-47.3,63.1c0,0.8,0.4,2.4,0,2.8v54.6c0,3.2-2.4,5.7-5.7,5.7c-3.2,0-5.7-2.4-5.7-5.7v-123.7
			c0-3.2,2.4-5.7,5.7-5.7c3.2,0,5.7,2.4,5.7,5.7v20.6c9.7-17.4,27.1-28.7,47.3-28.7c23,0,40.8,14.6,48.1,36c9.3-21,27.5-36,50.9-36
			C1915.9,2050.3,1934.9,2079,1934.9,2109.7z"/>
	</g>
</g>
</svg>
